<svg xmlns="http://www.w3.org/2000/svg" width="159.809" height="167.179" viewBox="0 0 159.809 167.179">
  <g id="组_61" data-name="组 61" transform="translate(-126.566 -110.797)">
    <path id="路径_32" data-name="路径 32" d="M180.576,123.227A41.58,41.58,0,1,1,139,164.807a41.631,41.631,0,0,1,41.58-41.58m0-12.43a54.01,54.01,0,1,0,54.01,54.01,54.005,54.005,0,0,0-54.01-54.01Z" fill="#c8c8c8"/>
    <path id="路径_33" data-name="路径 33" d="M491.3,554.752a18.855,18.855,0,0,1-11.8-4.382l-61.51-49.888a6.216,6.216,0,1,1,7.831-9.654l61.51,49.888c2.186,1.771,4.537,1.937,5.2,1.274l6.34-6.34c.58-.58.653-2.8-1.243-5.159L454.05,474.679a6.214,6.214,0,0,1,9.8-7.645l43.527,55.751c5.646,7.034,5.78,16.17.29,21.67l-6.34,6.34a14.045,14.045,0,0,1-10.027,3.957Z" transform="translate(-230.63 -282.256)" fill="#c8c8c8"/>
    <path id="路径_34" data-name="路径 34" d="M818.884,845.733a6.188,6.188,0,0,1-4.392-1.823l-10.752-10.752a6.211,6.211,0,0,1,8.784-8.784l10.752,10.752a6.215,6.215,0,0,1-4.392,10.607Z" transform="translate(-538.718 -567.757)" fill="#c8c8c8"/>
  </g>
</svg>
