<svg xmlns="http://www.w3.org/2000/svg" width="231.905" height="231.905" viewBox="0 0 231.905 231.905">
  <g id="组_60" data-name="组 60" transform="translate(-21.333)">
    <path id="路径_22" data-name="路径 22" d="M21.333,0h231.9V231.9H21.333Z" transform="translate(0)" fill="rgba(255,255,255,0)"/>
    <path id="路径_23" data-name="路径 23" d="M170.289,278.276a28.988,28.988,0,1,1,28.988-28.988A28.988,28.988,0,0,1,170.289,278.276Zm0-19.325a9.663,9.663,0,1,0-9.663-9.663,9.663,9.663,0,0,0,9.663,9.663ZM96.93,172.373l14.281,13.093a86.965,86.965,0,0,0,0,127.635L96.93,326.2a106.29,106.29,0,0,1,0-153.83Zm28.592,26.205,14.349,13.161a48.332,48.332,0,0,0,0,75.089l-14.349,13.161a67.641,67.641,0,0,1,0-101.41Zm118.127-26.205a106.289,106.289,0,0,1,0,153.83L229.368,313.11a86.977,86.977,0,0,0,0-127.644Zm-28.592,26.215a67.63,67.63,0,0,1,0,101.4l-14.349-13.161a48.322,48.322,0,0,0,0-75.079l14.349-13.161Z" transform="translate(-33.004 -133.336)" fill="#c8c8c8"/>
  </g>
</svg>
