<svg id="组_48" data-name="组 48" xmlns="http://www.w3.org/2000/svg" width="376.299" height="376.299" viewBox="0 0 376.299 376.299">
  <path id="路径_17" data-name="路径 17" d="M188.15,188.15,0,188.15C0,292.062,84.237,376.3,188.15,376.3S376.3,292.062,376.3,188.15,292.062,0,188.15,0,0,84.237,0,188.15Z" fill="#d81e06"/>
  <path id="路径_18" data-name="路径 18" d="M362.615,309.27l8.187,30a21.891,21.891,0,0,1,.661,3.541c2.11,20.8-4.162,29.574-19.984,29.574-22.065,0-32.253-23.428-23.023-40.1A45.019,45.019,0,0,1,362.615,309.27Zm67.968,56.576c-.017,47.049-48.919,75.961-96.715,66.109-39.9-8.222-67.437-38.394-73.453-77.381-6.642-43.075,20.936-85.163,73.435-95.877a5.7,5.7,0,1,0-2.281-11.175c-58.594,11.962-89.969,59.838-82.415,108.791,6.728,43.605,37.755,77.6,82.415,86.811,54.181,11.175,110.4-22.065,110.4-77.723-3.569-44.837-35.959-66.468-70.71-67.774L362.9,267.017a16.329,16.329,0,0,1,22.635-19.111l16.7,7.754a5.7,5.7,0,1,0,4.8-10.343l-16.7-7.754A27.732,27.732,0,0,0,351.9,270.021l7.686,28.154a56.428,56.428,0,0,0-41.108,28.593c-13.108,23.667,1.4,57.027,33,57.027,23.239,0,34.066-15.132,31.324-42.128a33.24,33.24,0,0,0-1-5.394l-7.372-27.025c28.183,2.4,53.275,20.571,56.16,56.6Z" transform="translate(-156.893 -148.631)" fill="#fff"/>
</svg>
