<svg xmlns="http://www.w3.org/2000/svg" width="376.299" height="376.299" viewBox="0 0 376.299 376.299">
  <g id="组_56" data-name="组 56" transform="translate(-2535 -2060)">
    <path id="路径_31" data-name="路径 31" d="M188.15,188.15,0,188.15C0,292.062,84.237,376.3,188.15,376.3S376.3,292.062,376.3,188.15,292.062,0,188.15,0,0,84.237,0,188.15Z" transform="translate(2535 2060)" fill="#eb1b00"/>
    <path id="路径_24" data-name="路径 24" d="M89.175,11.951a26.594,26.594,0,0,1,26.576,26.572,25.908,25.908,0,0,1-7.709,18.528,27.039,27.039,0,0,1-37.685,0,25.756,25.756,0,0,1-7.709-18.528A26.587,26.587,0,0,1,89.175,11.951ZM89.175,0a38.307,38.307,0,1,0,38.51,38.505A38.5,38.5,0,0,0,89.175,0Zm3.369,76.631a51.629,51.629,0,0,1,34.445,15.342,49.016,49.016,0,0,1,14.259,34.481v8.823H37.485v-8.823A48.851,48.851,0,0,1,51.744,91.974,51.6,51.6,0,0,1,86.19,76.636h6.354ZM92.82,64.68H85.931c-33.345,1.39-60.4,28.43-60.4,61.792v14.6a6.182,6.182,0,0,0,6.176,6.176H146.667a6.515,6.515,0,0,0,6.515-6.519V126.472c.018-33.363-27.013-60.4-60.362-61.792ZM35.791,72.968a5.776,5.776,0,0,1-3.306-1.02,32.623,32.623,0,0,1,5.882-57.4,5.984,5.984,0,1,1,4.483,11.1,20.7,20.7,0,0,0-3.686,36.41,5.967,5.967,0,0,1,1.649,8.288A6.158,6.158,0,0,1,35.8,72.968ZM5.971,123.184A5.971,5.971,0,0,1,0,117.208v-4.8a53.8,53.8,0,0,1,34.3-50.18,5.973,5.973,0,1,1,4.322,11.136,41.655,41.655,0,0,0-26.692,39.044v4.8a5.94,5.94,0,0,1-5.958,5.971Zm136.49-50.22a5.971,5.971,0,0,1-3.329-10.94,20.706,20.706,0,0,0-3.681-36.411,5.984,5.984,0,1,1,4.483-11.1,32.638,32.638,0,0,1,5.873,57.409,5.778,5.778,0,0,1-3.342,1.034Zm29.825,50.22a5.971,5.971,0,0,1-5.98-5.98v-4.8A41.629,41.629,0,0,0,139.614,73.36a5.973,5.973,0,0,1,4.322-11.136,53.8,53.8,0,0,1,34.308,50.185v4.8a5.94,5.94,0,0,1-5.953,5.971Z" transform="translate(2634.5 2174.5)" fill="#fff" stroke="#fff" stroke-width="3"/>
  </g>
</svg>
