<svg xmlns="http://www.w3.org/2000/svg" width="185.419" height="207.491" viewBox="0 0 185.419 207.491">
  <path id="路径_37" data-name="路径 37" d="M192.642,13.744a35.223,35.223,0,0,1,17.563-.237,48.5,48.5,0,0,1,18.246,8.743,13.5,13.5,0,0,1,4.642,5.686,11.73,11.73,0,0,1-1.039,10.7A11.653,11.653,0,0,1,216.231,42.2c-1.276-.75-2.249-1.908-3.53-2.651-3.438-2.182-7.4-3.9-11.536-3.8-2.914.034-5.478,1.741-7.453,3.747a8.112,8.112,0,0,0-2.179,7.34q2.131,8.023,4.253,16.046a62.372,62.372,0,0,1,29.155,8.544,83.114,83.114,0,0,1,22.323,19.922,69.524,69.524,0,0,1,11.512,22.628,76.27,76.27,0,0,1,2.767,27.218,84.27,84.27,0,0,1-4.606,22.164A86.738,86.738,0,0,1,222.3,205.776a93.558,93.558,0,0,1-38.4,13.4,96.4,96.4,0,0,1-28.185-.42A93.238,93.238,0,0,1,105.079,192.3a98.761,98.761,0,0,1-26.29-91.413,97.5,97.5,0,0,1,58.648-68.607,20.843,20.843,0,0,1,4.105-1.349,11.615,11.615,0,0,1,6.12,22.3,74.256,74.256,0,0,0-47.437,59.475,75.318,75.318,0,0,0,39.409,76.5A68.031,68.031,0,0,0,171.25,196.8a79.418,79.418,0,0,0,26.5-4.694,64.109,64.109,0,0,0,20.35-12.139,63.412,63.412,0,0,0,13.64-17.318,51.02,51.02,0,0,0,4.376-10.354c2.93-10.372,3.438-21.614.3-32a48.669,48.669,0,0,0-14.736-22.442,64.467,64.467,0,0,0-9.681-7.084,37.293,37.293,0,0,0-9.774-3.675c2.368,9.259,4.9,18.478,7.3,27.729.408,2.218.815,4.436,1.2,6.659a39.362,39.362,0,0,1-31.842,39.845,38.117,38.117,0,0,1-27.86-5.158,41.613,41.613,0,0,1-16.57-21.4,50.1,50.1,0,0,1-2.744-15.087A51.891,51.891,0,0,1,140.491,87.9c7.5-11.01,19.316-18.579,31.989-22.272-.933-3.569-1.888-7.133-2.832-10.7a31.647,31.647,0,0,1,1.725-23.595,33.36,33.36,0,0,1,8.289-10.488,34.077,34.077,0,0,1,12.98-7.095M162.383,97.649a26.957,26.957,0,0,0-6.808,12.9,34.054,34.054,0,0,0-.1,13.32c1.013,4.846,3.515,9.586,7.662,12.446a14.73,14.73,0,0,0,11.249,2.228,16.2,16.2,0,0,0,13.1-15.02,41.094,41.094,0,0,0-1.073-5.328q-3.98-15.056-7.969-30.109A36.986,36.986,0,0,0,162.383,97.649Z" transform="translate(-76.349 -12.512)" fill="#c8c8c8"/>
</svg>
