<svg xmlns="http://www.w3.org/2000/svg" width="376.299" height="376.299" viewBox="0 0 376.299 376.299">
  <g id="组_59" data-name="组 59" transform="translate(-1037 -2060)">
    <path id="路径_28" data-name="路径 28" d="M188.15,188.15,0,188.15C0,292.062,84.237,376.3,188.15,376.3S376.3,292.062,376.3,188.15,292.062,0,188.15,0,0,84.237,0,188.15Z" transform="translate(1037 2060)" fill="#eb1b00"/>
    <path id="路径_20" data-name="路径 20" d="M267.385,65.292a9.478,9.478,0,0,0-3.451-7.327,9.346,9.346,0,0,0-7.826-1.948L137.6,80.228a9.445,9.445,0,0,0-7.532,9.261l-.075,108.036a45.924,45.924,0,0,0-22.936-5.869h-.036c-10.8,0-21.035,3.4-28.818,9.845-8.319,6.887-12.905,15.292-12.911,25.329-.012,19.993,18.7,35.372,41.716,35.372h.036c10.8,0,20.459-2.705,28.243-9.148,8.32-6.886,12.333-15.644,12.333-25.677v.244l.644-92.109,99.991-20.32.107,55.985c-6.569-3.754-14.267-5.388-22.7-5.388h-.038c-10.8,0-21.035,2.974-28.818,9.415-8.321,6.886-12.908,15.5-12.913,25.542-.013,19.993,18.7,35.589,41.72,35.589h.029c21.947,0,40.029-14.381,41.658-33.091.016-.223.057-1.242.025-3.834ZM123.914,238.5c-4.427,3.664-10.418,4.89-16.872,4.89h-.022c-12.43,0-22.927-7.169-22.921-16.571,0-4.283,2.154-7.931,6.055-11.161,4.425-3.663,10.414-5.19,16.866-5.19h.022c12.435,0,22.935,7.471,22.929,16.875C129.967,231.624,127.817,235.27,123.914,238.5Zm24.939-119.86.015-21.414,99.7-20.368-.015,21.454Zm76.786,98.883h-.017c-12.432,0-22.93-7.6-22.924-17,0-4.283,2.154-7.717,6.056-10.947,4.425-3.663,10.414-4.975,16.868-4.975h.024c11.84,0,23.087,6.177,23.087,14.986v2.668C246.382,211.057,237.473,217.523,225.64,217.523Z" transform="translate(1049.209 2088.674)" fill="#fff" stroke="#fff" stroke-width="1.5"/>
  </g>
</svg>
