<svg xmlns="http://www.w3.org/2000/svg" width="196.159" height="219.51" viewBox="0 0 196.159 219.51">
  <path id="路径_27" data-name="路径 27" d="M199.378,13.815a37.263,37.263,0,0,1,18.58-.251,51.31,51.31,0,0,1,19.3,9.249,14.278,14.278,0,0,1,4.911,6.016,12.409,12.409,0,0,1-1.1,11.32,12.328,12.328,0,0,1-16.738,3.768c-1.35-.794-2.379-2.019-3.735-2.8-3.637-2.308-7.825-4.125-12.2-4.022-3.083.036-5.8,1.842-7.885,3.964a8.582,8.582,0,0,0-2.305,7.765q2.255,8.488,4.5,16.976a65.985,65.985,0,0,1,30.843,9.039A87.928,87.928,0,0,1,257.164,95.91a73.552,73.552,0,0,1,12.179,23.938,80.687,80.687,0,0,1,2.927,28.795A89.152,89.152,0,0,1,267.4,172.09a91.762,91.762,0,0,1-36.644,44.881,98.978,98.978,0,0,1-40.622,14.171,101.982,101.982,0,0,1-29.818-.445,98.639,98.639,0,0,1-53.57-27.984A104.481,104.481,0,0,1,78.931,106a103.152,103.152,0,0,1,62.045-72.581A22.049,22.049,0,0,1,145.319,32a12.287,12.287,0,0,1,6.474,23.595,78.557,78.557,0,0,0-50.185,62.92A79.681,79.681,0,0,0,143.3,199.439a71.972,71.972,0,0,0,33.446,8.032,84.018,84.018,0,0,0,28.039-4.966,67.823,67.823,0,0,0,21.529-12.842,67.083,67.083,0,0,0,14.43-18.321,53.973,53.973,0,0,0,4.63-10.954c3.1-10.973,3.637-22.866.322-33.856a51.489,51.489,0,0,0-15.589-23.742A68.2,68.2,0,0,0,219.865,95.3a39.454,39.454,0,0,0-10.34-3.888c2.5,9.795,5.184,19.548,7.724,29.335.431,2.346.862,4.693,1.266,7.044a41.642,41.642,0,0,1-33.686,42.153,40.325,40.325,0,0,1-29.474-5.457,44.023,44.023,0,0,1-17.529-22.645,53.006,53.006,0,0,1-2.9-15.961,54.9,54.9,0,0,1,9.285-33.616c7.931-11.647,20.435-19.655,33.842-23.562-.988-3.776-2-7.547-3-11.322a33.48,33.48,0,0,1,1.825-24.961,35.292,35.292,0,0,1,8.769-11.1,36.051,36.051,0,0,1,13.732-7.506m-32.012,88.766a28.519,28.519,0,0,0-7.2,13.647,36.026,36.026,0,0,0-.1,14.092c1.072,5.127,3.719,10.141,8.106,13.167a15.583,15.583,0,0,0,11.9,2.357,17.14,17.14,0,0,0,13.86-15.89,43.477,43.477,0,0,0-1.135-5.637q-4.211-15.928-8.43-31.853A39.128,39.128,0,0,0,167.367,102.581Z" transform="translate(-76.349 -12.512)" fill="#eb1b00"/>
</svg>
